<svg width="183" height="97" viewBox="0 0 183 97" fill="none" xmlns="http://www.w3.org/2000/svg">
<path d="M147.994 54.4865C146.906 51.0725 144.457 49.2973 140.785 49.2973H119.429L146.77 13.3826C147.858 12.0171 148.402 10.3784 148.402 8.60313C148.402 6.4182 147.586 4.5064 146.09 3.00426C144.593 1.50213 142.689 0.682785 140.513 0.682785H102.562C99.9776 0.682785 97.9372 1.77525 96.3049 3.96017C94.8087 6.14509 94.4006 8.33001 95.3528 10.788V10.9246C96.577 14.3385 98.8894 16.1138 102.562 16.1138H122.694L94.8087 52.5747C93.7205 53.9403 93.1764 55.4424 93.1764 57.0811C93.1764 59.1294 93.8565 60.9047 95.3528 62.4068C96.849 63.909 98.6173 64.5917 100.658 64.5917H140.921C143.505 64.5917 145.546 63.4993 147.178 61.3144C148.674 59.1294 148.946 56.9445 148.13 54.4865H147.994Z" fill="url(#paint0_linear_27_2366)"/>
<path d="M39.0389 64.8649H79.3019C81.8864 64.8649 83.9268 63.7724 85.5591 61.5875C87.0553 59.4026 87.3274 57.2176 86.5112 54.7596V54.623C85.423 51.2091 82.9746 49.4339 79.3019 49.4339H57.8102L85.151 13.3826C86.2392 12.0171 86.7833 10.3784 86.7833 8.60313C86.7833 6.41821 85.9671 4.5064 84.4709 3.00427C82.8386 1.36558 80.9342 0.546234 78.8939 0.546234H41.0792C38.4948 0.546234 36.4544 1.63869 34.8221 3.82362C33.3259 6.00854 32.9178 8.19346 33.87 10.6515V10.9246C35.0942 14.3386 37.4066 16.1138 41.0792 16.1138H61.2108L33.1898 52.5747C32.1017 53.9403 31.5576 55.4424 31.5576 57.0811C31.5576 59.1294 32.2377 60.9047 33.7339 62.4068C35.2302 64.0455 36.9985 64.8649 39.0389 64.8649Z" fill="url(#paint1_linear_27_2366)"/>
<path opacity="0.87" d="M146.634 77.0185C144.457 74.8336 141.737 73.7411 138.744 73.7411C135.616 73.7411 133.031 74.8336 130.855 77.0185C128.679 79.2034 127.59 81.9346 127.59 84.9388C127.59 88.0797 128.679 90.6742 130.855 92.8592C133.031 95.0441 135.616 96.1366 138.744 96.1366C141.873 96.1366 144.457 95.0441 146.634 92.8592C148.81 90.6742 149.898 88.0797 149.898 84.9388C149.898 81.798 148.81 79.2034 146.634 77.0185Z" fill="#00652E"/>
<path d="M11.154 22.2589C14.2825 22.2589 16.867 21.1664 19.0433 18.9815C21.2197 16.7966 22.3079 14.0654 22.3079 11.0612C22.3079 8.0569 21.2197 5.4623 19.0433 3.27738C16.867 1.09246 14.1465 0 11.154 0C8.02541 0 5.44096 1.09246 3.26457 3.27738C1.08819 5.4623 0 8.0569 0 11.0612C0 14.0654 1.08819 16.7966 3.26457 18.9815C5.44096 21.1664 8.02541 22.2589 11.154 22.2589Z" fill="#33B571"/>
<path d="M111.812 76.3357H20.2676V47.3855C20.2676 45.064 19.4514 43.0156 17.8191 41.377C16.1869 39.7383 14.1465 38.9189 11.8341 38.9189H11.562C9.24963 38.9189 7.20927 39.7383 5.57699 41.377C3.9447 43.0156 3.12856 45.064 3.12856 47.3855V84.9388C3.12856 87.2603 3.9447 89.3087 5.57699 90.9474C7.20927 92.5861 9.24963 93.4054 11.562 93.4054H11.6981H111.54C113.852 93.4054 115.892 92.5861 117.525 90.9474C119.157 89.3087 119.973 87.2603 119.973 84.9388V84.8023C119.973 82.4808 119.157 80.4324 117.525 78.7937C116.164 77.155 114.124 76.3357 111.812 76.3357Z" fill="url(#paint2_linear_27_2366)"/>
<path d="M162.957 82.0711C162.957 85.7582 165.813 88.6259 169.758 88.6259C173.567 88.6259 176.559 85.7582 176.559 82.0711C176.559 80.0227 175.471 77.8378 173.703 76.0626L177.647 72.3755C180.368 74.9701 182.136 78.7937 182.136 82.3442C182.136 89.5818 176.831 95.0441 169.758 95.0441C162.821 95.0441 157.652 89.4452 157.652 82.2077C157.652 78.6572 159.284 74.8336 161.732 72.5121L166.085 76.1991C164.181 77.7013 162.957 80.0227 162.957 82.0711Z" fill="#33B571"/>
<path d="M157.788 63.4993H167.581V53.8037H157.788V47.522H181.728V53.8037H172.478V63.4993H181.728V69.7809H157.788V63.4993Z" fill="#33B571"/>
<path d="M177.511 26.7653V37.1437L181.728 38.7824V45.2006L157.788 34.9587V28.5405L181.728 18.4353V25.1266L177.511 26.7653ZM172.75 28.6771L164.181 31.9545L172.75 35.3684V28.6771Z" fill="#33B571"/>
<path d="M157.788 0.409668H162.957V7.64722H181.728V13.9289H162.957V21.0299H157.788V0.409668Z" fill="#33B571"/>
<defs>
<linearGradient id="paint0_linear_27_2366" x1="93.2326" y1="32.6863" x2="148.573" y2="32.6863" gradientUnits="userSpaceOnUse">
<stop offset="0.0996274" stop-color="#33B571"/>
<stop offset="1" stop-color="#00652E"/>
</linearGradient>
<linearGradient id="paint1_linear_27_2366" x1="31.66" y1="32.6863" x2="87.0005" y2="32.6863" gradientUnits="userSpaceOnUse">
<stop offset="0.0996274" stop-color="#33B571"/>
<stop offset="1" stop-color="#1F9657"/>
</linearGradient>
<linearGradient id="paint2_linear_27_2366" x1="3.1544" y1="66.1788" x2="120.26" y2="66.1788" gradientUnits="userSpaceOnUse">
<stop offset="0.0996274" stop-color="#33B571"/>
<stop offset="1" stop-color="#00652E"/>
</linearGradient>
</defs>
</svg>
